<svg width="68" height="60" viewBox="0 0 68 60" fill="none" xmlns="http://www.w3.org/2000/svg">
<path d="M8.50001 35H14.1667V52.5C14.1667 53.163 14.4652 53.7989 14.9965 54.2678C15.5279 54.7366 16.2486 55 17 55H51C51.7515 55 52.4721 54.7366 53.0035 54.2678C53.5348 53.7989 53.8333 53.163 53.8333 52.5V35H59.5C60.0476 35.0004 60.5835 34.8606 61.0427 34.5974C61.5019 34.3342 61.8646 33.9591 62.0868 33.5175C62.3106 33.0762 62.3842 32.587 62.2987 32.1094C62.2131 31.6318 61.9722 31.1865 61.6052 30.8275L36.1052 5.8275C35.0313 4.7725 32.9687 4.7725 31.8948 5.8275L6.39484 30.8275C6.02847 31.1867 5.78791 31.6318 5.70227 32.1091C5.61664 32.5864 5.6896 33.0753 5.91233 33.5167C6.13505 33.9582 6.498 34.3332 6.95725 34.5965C7.4165 34.8597 7.95236 34.9999 8.50001 35ZM24.5168 29.1025C25.6962 28.0752 27.2867 27.4991 28.9439 27.4991C30.6012 27.4991 32.1917 28.0752 33.371 29.1025L34.0057 29.6525L34.6375 29.1025C35.8173 28.075 37.4083 27.4989 39.066 27.4989C40.7237 27.4989 42.3147 28.075 43.4945 29.1025C44.0798 29.5993 44.5454 30.1953 44.8635 30.8547C45.1816 31.5141 45.3455 32.2234 45.3455 32.94C45.3455 33.6566 45.1816 34.3659 44.8635 35.0253C44.5454 35.6847 44.0798 36.2807 43.4945 36.7775L34.0057 45L24.5168 36.7775C23.9315 36.2807 23.4659 35.6847 23.1479 35.0253C22.8298 34.3659 22.6659 33.6566 22.6659 32.94C22.6659 32.2234 22.8298 31.5141 23.1479 30.8547C23.4659 30.1953 23.9315 29.5993 24.5168 29.1025Z" fill="#E6E6E6"/>
</svg>
